<?xml version="1.0" encoding="UTF-8" standalone="no"?>
<svg
   viewBox="0 0 2048 2048"
   focusable="false"
   role="img"
   aria-label="Icon"
   version="1.1"
   id="svg2"
   sodipodi:docname="redo.svg"
   inkscape:version="1.3.2 (091e20e, 2023-11-25, custom)"
   xmlns:inkscape="http://www.inkscape.org/namespaces/inkscape"
   xmlns:sodipodi="http://sodipodi.sourceforge.net/DTD/sodipodi-0.dtd"
   xmlns="http://www.w3.org/2000/svg"
   xmlns:svg="http://www.w3.org/2000/svg">
  <defs
     id="defs2" />
  <sodipodi:namedview
     id="namedview2"
     pagecolor="#ffffff"
     bordercolor="#000000"
     borderopacity="0.25"
     inkscape:showpageshadow="2"
     inkscape:pageopacity="0.0"
     inkscape:pagecheckerboard="0"
     inkscape:deskcolor="#d1d1d1"
     inkscape:zoom="0.11523438"
     inkscape:cx="1024"
     inkscape:cy="1024"
     inkscape:window-width="1280"
     inkscape:window-height="650"
     inkscape:window-x="-6"
     inkscape:window-y="-6"
     inkscape:window-maximized="1"
     inkscape:current-layer="svg2" />
  <!-- First path -->
  <path
     class="OfficeIconColors_HighContrast"
     d="m 1639.1912,256 q 0,-21 15,-36 15,-15 36,-15 21,0 36,15 15,15 15,36 v 502 q 0,25 -18,43 -18,18 -43,18 h -502 q -21,0 -36,-15 -15,-15 -15,-36 0,-21 15,-36 15,-15 36,-15 h 368 l -355,-309 q -84,-73 -193.00002,-94 -106,-20 -207,15 -105,35 -178,119 -73,84 -94,193 -20,106 15,207 35,105 119,178 l 866.00002,727 q 16,14 17,35 1,21 -12,38 -14,16 -35,17 -21,1 -38,-12 L 586.19118,1104 q -105,-91 -149,-223 -43,-127 -18,-259 26,-136 116,-241 91,-105 223,-149 127,-43 259.00002,-18 136,26 241,116 l 381,332 z"
     id="path1" />
  <!-- Second path -->
</svg>
