<?xml version="1.0" encoding="UTF-8" standalone="no"?>
<svg
   width="16"
   height="16"
   fill="currentColor"
   class="bi bi-file-earmark-text"
   viewBox="0 0 16 16"
   version="1.1"
   id="svg2"
   sodipodi:docname="transclusion.svg"
   xml:space="preserve"
   inkscape:version="1.3.2 (091e20e, 2023-11-25, custom)"
   xmlns:inkscape="http://www.inkscape.org/namespaces/inkscape"
   xmlns:sodipodi="http://sodipodi.sourceforge.net/DTD/sodipodi-0.dtd"
   xmlns="http://www.w3.org/2000/svg"
   xmlns:svg="http://www.w3.org/2000/svg"><defs
     id="defs2" /><sodipodi:namedview
     id="namedview2"
     pagecolor="#ffffff"
     bordercolor="#000000"
     borderopacity="0.25"
     inkscape:showpageshadow="2"
     inkscape:pageopacity="0.0"
     inkscape:pagecheckerboard="0"
     inkscape:deskcolor="#d1d1d1"
     inkscape:zoom="20.85965"
     inkscape:cx="7.8620686"
     inkscape:cy="8.1976447"
     inkscape:window-width="1280"
     inkscape:window-height="650"
     inkscape:window-x="-6"
     inkscape:window-y="-6"
     inkscape:window-maximized="1"
     inkscape:current-layer="g2" /><g
     inkscape:groupmode="layer"
     id="layer1"
     inkscape:label="Document 1"
     transform="matrix(0.72734442,0,0,0.72734442,0.54531116,0)"
     style="stroke-width:1.37486"><g
       id="g2"
       transform="matrix(0.77336126,0,0,0.77336126,-1.062658,0.79092284)"
       style="stroke-width:1.77776"><path
         d="M 9.5,0 H 4 A 2,2 0 0 0 2,2 v 12 a 2,2 0 0 0 2,2 h 8 a 2,2 0 0 0 2,-2 V 4.5 Z m 0,1 V 3 A 1.5,1.5 0 0 0 11,4.5 h 2 V 14 a 1,1 0 0 1 -1,1 H 4 A 1,1 0 0 1 3,14 V 2 A 1,1 0 0 1 4,1 Z"
         id="path2"
         style="stroke-width:1.77776" /><path
         d="m 5.5,7 a 0.5,0.5 0 0 0 0,1 h 5 a 0.5,0.5 0 0 0 0,-1 z M 5,9.5 A 0.5,0.5 0 0 1 5.5,9 h 5 a 0.5,0.5 0 0 1 0,1 h -5 A 0.5,0.5 0 0 1 5,9.5 m 0,2 A 0.5,0.5 0 0 1 5.5,11 h 2 a 0.5,0.5 0 0 1 0,1 h -2 A 0.5,0.5 0 0 1 5,11.5"
         id="path1"
         style="stroke-width:1.77776" /><g
         style="fill:currentColor;stroke-width:5.66548"
         id="g3"
         transform="matrix(0.50757964,0,0,0.61308818,6.5423679,15.60013)"><path
           fill-rule="evenodd"
           d="M 1.5,1.5 A 0.5,0.5 0 0 0 1,2 v 4.8 a 2.5,2.5 0 0 0 2.5,2.5 h 9.793 l -3.347,3.346 a 0.5006316,0.5006316 0 0 0 0.708,0.708 l 4.2,-4.2 a 0.5,0.5 0 0 0 0,-0.708 l -4,-4 A 0.5006316,0.5006316 0 0 0 10.146,5.154 L 13.293,8.3 H 3.5 A 1.5,1.5 0 0 1 2,6.8 V 2 A 0.5,0.5 0 0 0 1.5,1.5"
           id="path1-87"
           style="stroke-width:5.66548" /></g></g></g><g
     inkscape:groupmode="layer"
     id="layer2"
     inkscape:label="Document 2"><path
       d="M 12.604384,5.6467609 H 9.2962552 A 1.2499998,1.2499998 0 0 0 8.0462558,6.8967605 v 7.5000005 a 1.2499998,1.2499998 0 0 0 1.2499994,1.25 h 5.0000018 a 1.2499998,1.2499998 0 0 0 1.249999,-1.25 V 8.5886347 a 0.62499971,0.62499971 0 0 0 -0.18313,-0.441875 l -2.31687,-2.316874 A 0.62499971,0.62499971 0 0 0 12.604384,5.6467609 m 0.129372,2.187499 V 6.584261 l 1.875001,1.8749987 h -1.25 A 0.62499971,0.62499971 0 0 1 12.733756,7.8342599 M 9.6087551,11.271762 a 0.31250052,0.31250052 0 0 1 0,-0.625001 h 4.3750019 a 0.31250052,0.31250052 0 0 1 0,0.625001 z M 9.2962552,12.20926 a 0.31249984,0.31249984 0 0 1 0.3124999,-0.3125 h 4.3750019 a 0.31250001,0.31250001 0 0 1 0,0.625 H 9.6087551 a 0.31249984,0.31249984 0 0 1 -0.3124999,-0.3125 m 0.3124999,1.5625 a 0.31250001,0.31250001 0 0 1 0,-0.625 h 2.5000009 a 0.31250001,0.31250001 0 0 1 0,0.625 z"
       id="path1-8"
       style="fill:#000000;fill-opacity:0.993671;stroke-width:1.37486" /></g></svg>
